# xmcd
# 
# Track frame offsets:
#     150
#     14023
#     26644
#     40073
#     61798
#     79217
#     91573
#     110942
#     128458
#     139145
#     159819
# 
# Disc length: 2310
# 
# Revision: 2
# Processed by: cddbd v1.5.2PL0 Copyright (c) Steve Scherf et al.
# Submitted via: fre:ac v1.0.27
# 
DISCID=8109040b
DTITLE=Amanda Shires - West Cross Timbers
DYEAR=2009
DGENRE=Folk-Rock
TTITLE0=Upon Hearing Violins
TTITLE1=Unwanted Things
TTITLE2=I Kept Watch Like Doves
TTITLE3=Put Me to Bed
TTITLE4=Mineral Wells
TTITLE5=Angels and Acrobats
TTITLE6=Rings and Chains
TTITLE7=Days in Blankets
TTITLE8=Keep Them Dogs from Barkin'
TTITLE9=Mariann Leola
TTITLE10=Whispering
EXTD=
EXTT0=
EXTT1=
EXTT2=
EXTT3=
EXTT4=
EXTT5=
EXTT6=
EXTT7=
EXTT8=
EXTT9=
EXTT10=
PLAYORDER=
